<svg xmlns="http://www.w3.org/2000/svg" xmlns:xlink="http://www.w3.org/1999/xlink" width="500" zoomAndPan="magnify" viewBox="0 0 375 374.999991" height="500" preserveAspectRatio="xMidYMid meet" version="1.0"><defs><filter x="0%" y="0%" width="100%" height="100%" id="530efa9e4c"><feColorMatrix values="0 0 0 0 1 0 0 0 0 1 0 0 0 0 1 0 0 0 1 0" color-interpolation-filters="sRGB"/></filter><g/><clipPath id="278a7d2f89"><path d="M 125.890625 125.890625 L 249.109375 125.890625 L 249.109375 249.109375 L 125.890625 249.109375 Z M 125.890625 125.890625 " clip-rule="nonzero"/></clipPath><clipPath id="4e5c228cd6"><path d="M 187.5 125.890625 C 153.472656 125.890625 125.890625 153.472656 125.890625 187.5 C 125.890625 221.527344 153.472656 249.109375 187.5 249.109375 C 221.527344 249.109375 249.109375 221.527344 249.109375 187.5 C 249.109375 153.472656 221.527344 125.890625 187.5 125.890625 " clip-rule="nonzero"/></clipPath><mask id="37bd6c2310"><g filter="url(#530efa9e4c)"><rect x="-37.5" width="450" fill="#000000" y="-37.499999" height="449.999989" fill-opacity="0.2863"/></g></mask><clipPath id="2687888b2e"><path d="M 78 11 L 112.835938 11 L 112.835938 74 L 78 74 Z M 78 11 " clip-rule="nonzero"/></clipPath><clipPath id="50d3843605"><path d="M 0.25 11 L 35 11 L 35 74 L 0.25 74 Z M 0.25 11 " clip-rule="nonzero"/></clipPath><clipPath id="dd31700679"><path d="M 38 0.679688 L 75 0.679688 L 75 84.59375 L 38 84.59375 Z M 38 0.679688 " clip-rule="nonzero"/></clipPath><clipPath id="9ecdf62633"><rect x="0" width="114" y="0" height="85"/></clipPath></defs><rect x="-37.5" width="450" fill="#ffffff" y="-37.499999" height="449.999989" fill-opacity="1"/><rect x="-37.5" width="450" fill="#ffffff" y="-37.499999" height="449.999989" fill-opacity="1"/><rect x="-37.5" width="450" fill="#bfcccc" y="-37.499999" height="449.999989" fill-opacity="1"/><g clip-path="url(#278a7d2f89)"><g clip-path="url(#4e5c228cd6)"><path fill="#51807f" d="M 125.890625 125.890625 L 249.109375 125.890625 L 249.109375 249.109375 L 125.890625 249.109375 Z M 125.890625 125.890625 " fill-opacity="1" fill-rule="nonzero"/></g></g><g mask="url(#37bd6c2310)"><g transform="matrix(1, 0, 0, 1, 131, 145)"><g clip-path="url(#9ecdf62633)"><g clip-path="url(#2687888b2e)"><path fill="#efffff" d="M 81.605469 73.84375 C 80.9375 73.84375 80.269531 73.585938 79.761719 73.078125 C 78.742188 72.058594 78.742188 70.410156 79.761719 69.390625 L 106.507812 42.675781 L 79.761719 15.964844 C 78.742188 14.945312 78.742188 13.292969 79.761719 12.277344 C 80.78125 11.257812 82.433594 11.257812 83.453125 12.277344 L 112.042969 40.832031 C 112.53125 41.324219 112.808594 41.984375 112.808594 42.675781 C 112.808594 43.367188 112.53125 44.03125 112.042969 44.519531 L 83.453125 73.078125 C 82.941406 73.585938 82.273438 73.84375 81.605469 73.84375 Z M 81.605469 73.84375 " fill-opacity="1" fill-rule="nonzero"/></g><g clip-path="url(#50d3843605)"><path fill="#efffff" d="M 31.480469 73.84375 C 30.8125 73.84375 30.144531 73.585938 29.632812 73.078125 L 1.042969 44.519531 C 0.554688 44.03125 0.277344 43.367188 0.277344 42.679688 C 0.277344 41.988281 0.554688 41.324219 1.042969 40.835938 L 29.632812 12.277344 C 30.652344 11.257812 32.304688 11.257812 33.324219 12.277344 C 34.34375 13.292969 34.34375 14.945312 33.324219 15.964844 L 6.578125 42.675781 L 33.324219 69.390625 C 34.34375 70.410156 34.34375 72.058594 33.324219 73.078125 C 32.816406 73.585938 32.148438 73.84375 31.480469 73.84375 Z M 31.480469 73.84375 " fill-opacity="1" fill-rule="nonzero"/></g><g clip-path="url(#dd31700679)"><path fill="#efffff" d="M 41.007812 84.609375 C 40.6875 84.609375 40.363281 84.550781 40.050781 84.425781 C 38.710938 83.898438 38.050781 82.382812 38.582031 81.042969 L 69.652344 2.394531 C 70.179688 1.058594 71.695312 0.398438 73.035156 0.929688 C 74.375 1.457031 75.035156 2.96875 74.503906 4.308594 L 43.4375 82.957031 C 43.03125 83.984375 42.046875 84.609375 41.007812 84.609375 Z M 41.007812 84.609375 " fill-opacity="1" fill-rule="nonzero"/></g></g></g></g><g fill="#d9d9d9" fill-opacity="0.4"><g transform="translate(164.613217, 188.015174)"><g><path d="M 1.78125 -15.8125 L 4.359375 -15.8125 C 5.054688 -15.8125 5.59375 -15.796875 5.96875 -15.765625 C 6.34375 -15.742188 6.8125 -15.6875 7.375 -15.59375 C 7.9375 -15.507812 8.4375 -15.347656 8.875 -15.109375 C 9.320312 -14.878906 9.742188 -14.566406 10.140625 -14.171875 C 10.535156 -13.773438 10.847656 -13.363281 11.078125 -12.9375 C 11.304688 -12.507812 11.46875 -11.988281 11.5625 -11.375 C 11.65625 -10.769531 11.707031 -10.253906 11.71875 -9.828125 C 11.738281 -9.398438 11.75 -8.757812 11.75 -7.90625 C 11.75 -7.050781 11.738281 -6.410156 11.71875 -5.984375 C 11.707031 -5.554688 11.65625 -5.035156 11.5625 -4.421875 C 11.46875 -3.816406 11.304688 -3.300781 11.078125 -2.875 C 10.847656 -2.445312 10.535156 -2.035156 10.140625 -1.640625 C 9.742188 -1.242188 9.320312 -0.925781 8.875 -0.6875 C 8.4375 -0.445312 7.9375 -0.285156 7.375 -0.203125 C 6.8125 -0.117188 6.34375 -0.0625 5.96875 -0.03125 C 5.59375 -0.0078125 5.054688 0 4.359375 0 L 1.78125 0 Z M 3.53125 -14.140625 L 3.53125 -1.65625 L 4.359375 -1.65625 C 5.171875 -1.65625 5.773438 -1.664062 6.171875 -1.6875 C 6.566406 -1.71875 7.023438 -1.816406 7.546875 -1.984375 C 8.066406 -2.160156 8.503906 -2.425781 8.859375 -2.78125 C 9.222656 -3.144531 9.488281 -3.59375 9.65625 -4.125 C 9.832031 -4.664062 9.929688 -5.171875 9.953125 -5.640625 C 9.972656 -6.109375 9.984375 -6.863281 9.984375 -7.90625 C 9.984375 -8.945312 9.972656 -9.703125 9.953125 -10.171875 C 9.929688 -10.640625 9.832031 -11.140625 9.65625 -11.671875 C 9.488281 -12.210938 9.222656 -12.664062 8.859375 -13.03125 C 8.503906 -13.375 8.066406 -13.632812 7.546875 -13.8125 C 7.023438 -13.988281 6.566406 -14.085938 6.171875 -14.109375 C 5.773438 -14.128906 5.171875 -14.140625 4.359375 -14.140625 Z M 3.53125 -14.140625 "/></g></g></g><g fill="#d9d9d9" fill-opacity="0.4"><g transform="translate(182.641851, 188.015174)"><g><path d="M 1.78125 -15.8125 L 10.5625 -15.8125 L 10.5625 -14.140625 L 3.53125 -14.140625 L 3.53125 -8.96875 L 9.140625 -8.96875 L 9.140625 -7.3125 L 3.53125 -7.3125 L 3.53125 -1.65625 L 10.5625 -1.65625 L 10.5625 0 L 1.78125 0 Z M 1.78125 -15.8125 "/></g></g></g><g fill="#d9d9d9" fill-opacity="0.4"><g transform="translate(199.484546, 188.015174)"><g><path d="M 7.328125 0 L 5.671875 0 L 0.59375 -15.8125 L 2.421875 -15.8125 L 6.5 -2.515625 L 10.578125 -15.8125 L 12.40625 -15.8125 Z M 7.328125 0 "/></g></g></g><g fill="#efffff" fill-opacity="1"><g transform="translate(163.564462, 186.966417)"><g><path d="M 1.78125 -15.8125 L 4.359375 -15.8125 C 5.054688 -15.8125 5.59375 -15.796875 5.96875 -15.765625 C 6.34375 -15.742188 6.8125 -15.6875 7.375 -15.59375 C 7.9375 -15.507812 8.4375 -15.347656 8.875 -15.109375 C 9.320312 -14.878906 9.742188 -14.566406 10.140625 -14.171875 C 10.535156 -13.773438 10.847656 -13.363281 11.078125 -12.9375 C 11.304688 -12.507812 11.46875 -11.988281 11.5625 -11.375 C 11.65625 -10.769531 11.707031 -10.253906 11.71875 -9.828125 C 11.738281 -9.398438 11.75 -8.757812 11.75 -7.90625 C 11.75 -7.050781 11.738281 -6.410156 11.71875 -5.984375 C 11.707031 -5.554688 11.65625 -5.035156 11.5625 -4.421875 C 11.46875 -3.816406 11.304688 -3.300781 11.078125 -2.875 C 10.847656 -2.445312 10.535156 -2.035156 10.140625 -1.640625 C 9.742188 -1.242188 9.320312 -0.925781 8.875 -0.6875 C 8.4375 -0.445312 7.9375 -0.285156 7.375 -0.203125 C 6.8125 -0.117188 6.34375 -0.0625 5.96875 -0.03125 C 5.59375 -0.0078125 5.054688 0 4.359375 0 L 1.78125 0 Z M 3.53125 -14.140625 L 3.53125 -1.65625 L 4.359375 -1.65625 C 5.171875 -1.65625 5.773438 -1.664062 6.171875 -1.6875 C 6.566406 -1.71875 7.023438 -1.816406 7.546875 -1.984375 C 8.066406 -2.160156 8.503906 -2.425781 8.859375 -2.78125 C 9.222656 -3.144531 9.488281 -3.59375 9.65625 -4.125 C 9.832031 -4.664062 9.929688 -5.171875 9.953125 -5.640625 C 9.972656 -6.109375 9.984375 -6.863281 9.984375 -7.90625 C 9.984375 -8.945312 9.972656 -9.703125 9.953125 -10.171875 C 9.929688 -10.640625 9.832031 -11.140625 9.65625 -11.671875 C 9.488281 -12.210938 9.222656 -12.664062 8.859375 -13.03125 C 8.503906 -13.375 8.066406 -13.632812 7.546875 -13.8125 C 7.023438 -13.988281 6.566406 -14.085938 6.171875 -14.109375 C 5.773438 -14.128906 5.171875 -14.140625 4.359375 -14.140625 Z M 3.53125 -14.140625 "/></g></g></g><g fill="#efffff" fill-opacity="1"><g transform="translate(181.593097, 186.966417)"><g><path d="M 1.78125 -15.8125 L 10.5625 -15.8125 L 10.5625 -14.140625 L 3.53125 -14.140625 L 3.53125 -8.96875 L 9.140625 -8.96875 L 9.140625 -7.3125 L 3.53125 -7.3125 L 3.53125 -1.65625 L 10.5625 -1.65625 L 10.5625 0 L 1.78125 0 Z M 1.78125 -15.8125 "/></g></g></g><g fill="#efffff" fill-opacity="1"><g transform="translate(198.435792, 186.966417)"><g><path d="M 7.328125 0 L 5.671875 0 L 0.59375 -15.8125 L 2.421875 -15.8125 L 6.5 -2.515625 L 10.578125 -15.8125 L 12.40625 -15.8125 Z M 7.328125 0 "/></g></g></g><g fill="#a6a6a6" fill-opacity="0.4"><g transform="translate(150.0005, 207.196611)"><g><path d="M 0.984375 -6.453125 L 3.40625 -6.453125 C 4.195312 -6.453125 4.8125 -6.257812 5.25 -5.875 C 5.695312 -5.5 5.921875 -4.96875 5.921875 -4.28125 C 5.921875 -3.570312 5.695312 -3.019531 5.25 -2.625 C 4.8125 -2.226562 4.195312 -2.03125 3.40625 -2.03125 L 1.71875 -2.03125 L 1.71875 0 L 0.984375 0 Z M 1.71875 -5.75 L 1.71875 -2.75 L 3.375 -2.75 C 3.96875 -2.75 4.421875 -2.875 4.734375 -3.125 C 5.046875 -3.382812 5.203125 -3.765625 5.203125 -4.265625 C 5.203125 -4.753906 5.046875 -5.125 4.734375 -5.375 C 4.421875 -5.625 3.96875 -5.75 3.375 -5.75 Z M 1.71875 -5.75 "/></g></g></g><g fill="#a6a6a6" fill-opacity="0.4"><g transform="translate(158.016184, 207.196611)"><g><path d="M 3.890625 0 L 3.890625 -0.75 C 3.503906 -0.226562 2.910156 0.03125 2.109375 0.03125 C 1.617188 0.03125 1.21875 -0.101562 0.90625 -0.375 C 0.601562 -0.65625 0.453125 -1.015625 0.453125 -1.453125 C 0.453125 -1.867188 0.613281 -2.203125 0.9375 -2.453125 C 1.257812 -2.703125 1.707031 -2.832031 2.28125 -2.84375 L 3.875 -2.84375 L 3.875 -3.125 C 3.875 -3.488281 3.757812 -3.769531 3.53125 -3.96875 C 3.3125 -4.164062 2.992188 -4.265625 2.578125 -4.265625 C 2.078125 -4.265625 1.5625 -4.078125 1.03125 -3.703125 L 0.734375 -4.234375 C 1.078125 -4.460938 1.394531 -4.628906 1.6875 -4.734375 C 1.976562 -4.835938 2.316406 -4.890625 2.703125 -4.890625 C 3.304688 -4.890625 3.769531 -4.738281 4.09375 -4.4375 C 4.414062 -4.144531 4.578125 -3.734375 4.578125 -3.203125 L 4.59375 0 Z M 2.25 -0.59375 C 2.65625 -0.59375 3.003906 -0.6875 3.296875 -0.875 C 3.597656 -1.070312 3.789062 -1.335938 3.875 -1.671875 L 3.875 -2.265625 L 2.375 -2.265625 C 1.550781 -2.265625 1.140625 -2 1.140625 -1.46875 C 1.140625 -1.195312 1.238281 -0.984375 1.4375 -0.828125 C 1.644531 -0.671875 1.914062 -0.59375 2.25 -0.59375 Z M 2.25 -0.59375 "/></g></g></g><g fill="#a6a6a6" fill-opacity="0.4"><g transform="translate(165.183379, 207.196611)"><g><path d="M 5.09375 -4.859375 L 5.09375 0 L 4.375 0 L 4.375 -1.09375 C 4.0625 -0.351562 3.445312 0.0195312 2.53125 0.03125 C 1.957031 0.03125 1.507812 -0.132812 1.1875 -0.46875 C 0.863281 -0.8125 0.703125 -1.273438 0.703125 -1.859375 L 0.703125 -4.859375 L 1.421875 -4.859375 L 1.421875 -2.0625 C 1.421875 -1.625 1.539062 -1.285156 1.78125 -1.046875 C 2.019531 -0.804688 2.351562 -0.6875 2.78125 -0.6875 C 3.269531 -0.695312 3.65625 -0.863281 3.9375 -1.1875 C 4.226562 -1.519531 4.375 -1.945312 4.375 -2.46875 L 4.375 -4.859375 Z M 5.09375 -4.859375 "/></g></g></g><g fill="#a6a6a6" fill-opacity="0.4"><g transform="translate(172.996158, 207.196611)"><g><path d="M 1.640625 0 L 0.921875 0 L 0.921875 -6.84375 L 1.640625 -6.84375 Z M 1.640625 0 "/></g></g></g><g fill="#a6a6a6" fill-opacity="0.4"><g transform="translate(177.405774, 207.196611)"><g/></g></g><g fill="#a6a6a6" fill-opacity="0.4"><g transform="translate(181.778495, 207.196611)"><g><path d="M 7.5 0 L 6.828125 0 L 6.8125 -5.3125 L 4.46875 -0.6875 L 4.015625 -0.6875 L 1.671875 -5.3125 L 1.671875 0 L 0.984375 0 L 0.984375 -6.453125 L 1.890625 -6.453125 L 4.25 -1.8125 L 6.59375 -6.453125 L 7.5 -6.453125 Z M 7.5 0 "/></g></g></g><g fill="#a6a6a6" fill-opacity="0.4"><g transform="translate(192.118292, 207.196611)"><g><path d="M 1.078125 -4.1875 C 1.535156 -4.644531 2.125 -4.875 2.84375 -4.875 C 3.5625 -4.875 4.148438 -4.644531 4.609375 -4.1875 C 5.078125 -3.738281 5.3125 -3.15625 5.3125 -2.4375 C 5.3125 -1.707031 5.078125 -1.113281 4.609375 -0.65625 C 4.148438 -0.195312 3.5625 0.03125 2.84375 0.03125 C 2.125 0.03125 1.535156 -0.195312 1.078125 -0.65625 C 0.617188 -1.113281 0.390625 -1.707031 0.390625 -2.4375 C 0.390625 -3.15625 0.617188 -3.738281 1.078125 -4.1875 Z M 4.09375 -3.71875 C 3.769531 -4.050781 3.351562 -4.21875 2.84375 -4.21875 C 2.332031 -4.21875 1.914062 -4.050781 1.59375 -3.71875 C 1.269531 -3.382812 1.109375 -2.953125 1.109375 -2.421875 C 1.109375 -1.890625 1.269531 -1.457031 1.59375 -1.125 C 1.914062 -0.789062 2.332031 -0.625 2.84375 -0.625 C 3.351562 -0.625 3.769531 -0.789062 4.09375 -1.125 C 4.425781 -1.457031 4.59375 -1.890625 4.59375 -2.421875 C 4.59375 -2.953125 4.425781 -3.382812 4.09375 -3.71875 Z M 4.09375 -3.71875 "/></g></g></g><g fill="#a6a6a6" fill-opacity="0.4"><g transform="translate(199.66361, 207.196611)"><g><path d="M 1.59375 -4.859375 L 1.59375 -3.78125 C 1.925781 -4.507812 2.507812 -4.878906 3.34375 -4.890625 L 3.34375 -4.15625 C 2.832031 -4.164062 2.421875 -4.023438 2.109375 -3.734375 C 1.804688 -3.453125 1.632812 -3.066406 1.59375 -2.578125 L 1.59375 0 L 0.875 0 L 0.875 -4.859375 Z M 1.59375 -4.859375 "/></g></g></g><g fill="#a6a6a6" fill-opacity="0.4"><g transform="translate(204.940148, 207.196611)"><g><path d="M 2.796875 -4.875 C 3.566406 -4.882812 4.144531 -4.640625 4.53125 -4.140625 C 4.914062 -3.648438 5.09375 -2.984375 5.0625 -2.140625 L 1.09375 -2.140625 C 1.15625 -1.671875 1.34375 -1.296875 1.65625 -1.015625 C 1.976562 -0.734375 2.378906 -0.59375 2.859375 -0.59375 C 3.472656 -0.59375 3.972656 -0.796875 4.359375 -1.203125 L 4.75 -0.78125 C 4.269531 -0.238281 3.617188 0.03125 2.796875 0.03125 C 2.085938 0.03125 1.507812 -0.195312 1.0625 -0.65625 C 0.613281 -1.113281 0.390625 -1.703125 0.390625 -2.421875 C 0.390625 -3.148438 0.613281 -3.738281 1.0625 -4.1875 C 1.507812 -4.644531 2.085938 -4.875 2.796875 -4.875 Z M 1.09375 -2.734375 L 4.421875 -2.734375 C 4.390625 -3.203125 4.226562 -3.570312 3.9375 -3.84375 C 3.644531 -4.125 3.265625 -4.265625 2.796875 -4.265625 C 2.335938 -4.265625 1.953125 -4.125 1.640625 -3.84375 C 1.335938 -3.5625 1.15625 -3.191406 1.09375 -2.734375 Z M 1.09375 -2.734375 "/></g></g></g><g fill="#a6a6a6" fill-opacity="0.4"><g transform="translate(212.208794, 207.196611)"><g><path d="M 3.46875 -4.890625 C 4.050781 -4.890625 4.503906 -4.71875 4.828125 -4.375 C 5.148438 -4.039062 5.3125 -3.582031 5.3125 -3 L 5.3125 0 L 4.59375 0 L 4.59375 -2.796875 C 4.59375 -3.234375 4.472656 -3.570312 4.234375 -3.8125 C 3.992188 -4.050781 3.65625 -4.171875 3.21875 -4.171875 C 2.75 -4.160156 2.367188 -4.015625 2.078125 -3.734375 C 1.796875 -3.453125 1.632812 -3.078125 1.59375 -2.609375 L 1.59375 0 L 0.875 0 L 0.875 -4.859375 L 1.59375 -4.859375 L 1.59375 -3.78125 C 1.925781 -4.507812 2.550781 -4.878906 3.46875 -4.890625 Z M 3.46875 -4.890625 "/></g></g></g><g fill="#a6a6a6" fill-opacity="0.4"><g transform="translate(220.104576, 207.196611)"><g><path d="M 1.078125 -4.1875 C 1.535156 -4.644531 2.125 -4.875 2.84375 -4.875 C 3.5625 -4.875 4.148438 -4.644531 4.609375 -4.1875 C 5.078125 -3.738281 5.3125 -3.15625 5.3125 -2.4375 C 5.3125 -1.707031 5.078125 -1.113281 4.609375 -0.65625 C 4.148438 -0.195312 3.5625 0.03125 2.84375 0.03125 C 2.125 0.03125 1.535156 -0.195312 1.078125 -0.65625 C 0.617188 -1.113281 0.390625 -1.707031 0.390625 -2.4375 C 0.390625 -3.15625 0.617188 -3.738281 1.078125 -4.1875 Z M 4.09375 -3.71875 C 3.769531 -4.050781 3.351562 -4.21875 2.84375 -4.21875 C 2.332031 -4.21875 1.914062 -4.050781 1.59375 -3.71875 C 1.269531 -3.382812 1.109375 -2.953125 1.109375 -2.421875 C 1.109375 -1.890625 1.269531 -1.457031 1.59375 -1.125 C 1.914062 -0.789062 2.332031 -0.625 2.84375 -0.625 C 3.351562 -0.625 3.769531 -0.789062 4.09375 -1.125 C 4.425781 -1.457031 4.59375 -1.890625 4.59375 -2.421875 C 4.59375 -2.953125 4.425781 -3.382812 4.09375 -3.71875 Z M 4.09375 -3.71875 "/></g></g></g><g fill="#efffff" fill-opacity="1"><g transform="translate(149.592652, 206.78877)"><g><path d="M 0.984375 -6.453125 L 3.40625 -6.453125 C 4.195312 -6.453125 4.8125 -6.257812 5.25 -5.875 C 5.695312 -5.5 5.921875 -4.96875 5.921875 -4.28125 C 5.921875 -3.570312 5.695312 -3.019531 5.25 -2.625 C 4.8125 -2.226562 4.195312 -2.03125 3.40625 -2.03125 L 1.71875 -2.03125 L 1.71875 0 L 0.984375 0 Z M 1.71875 -5.75 L 1.71875 -2.75 L 3.375 -2.75 C 3.96875 -2.75 4.421875 -2.875 4.734375 -3.125 C 5.046875 -3.382812 5.203125 -3.765625 5.203125 -4.265625 C 5.203125 -4.753906 5.046875 -5.125 4.734375 -5.375 C 4.421875 -5.625 3.96875 -5.75 3.375 -5.75 Z M 1.71875 -5.75 "/></g></g></g><g fill="#efffff" fill-opacity="1"><g transform="translate(157.608335, 206.78877)"><g><path d="M 3.890625 0 L 3.890625 -0.75 C 3.503906 -0.226562 2.910156 0.03125 2.109375 0.03125 C 1.617188 0.03125 1.21875 -0.101562 0.90625 -0.375 C 0.601562 -0.65625 0.453125 -1.015625 0.453125 -1.453125 C 0.453125 -1.867188 0.613281 -2.203125 0.9375 -2.453125 C 1.257812 -2.703125 1.707031 -2.832031 2.28125 -2.84375 L 3.875 -2.84375 L 3.875 -3.125 C 3.875 -3.488281 3.757812 -3.769531 3.53125 -3.96875 C 3.3125 -4.164062 2.992188 -4.265625 2.578125 -4.265625 C 2.078125 -4.265625 1.5625 -4.078125 1.03125 -3.703125 L 0.734375 -4.234375 C 1.078125 -4.460938 1.394531 -4.628906 1.6875 -4.734375 C 1.976562 -4.835938 2.316406 -4.890625 2.703125 -4.890625 C 3.304688 -4.890625 3.769531 -4.738281 4.09375 -4.4375 C 4.414062 -4.144531 4.578125 -3.734375 4.578125 -3.203125 L 4.59375 0 Z M 2.25 -0.59375 C 2.65625 -0.59375 3.003906 -0.6875 3.296875 -0.875 C 3.597656 -1.070312 3.789062 -1.335938 3.875 -1.671875 L 3.875 -2.265625 L 2.375 -2.265625 C 1.550781 -2.265625 1.140625 -2 1.140625 -1.46875 C 1.140625 -1.195312 1.238281 -0.984375 1.4375 -0.828125 C 1.644531 -0.671875 1.914062 -0.59375 2.25 -0.59375 Z M 2.25 -0.59375 "/></g></g></g><g fill="#efffff" fill-opacity="1"><g transform="translate(164.77553, 206.78877)"><g><path d="M 5.09375 -4.859375 L 5.09375 0 L 4.375 0 L 4.375 -1.09375 C 4.0625 -0.351562 3.445312 0.0195312 2.53125 0.03125 C 1.957031 0.03125 1.507812 -0.132812 1.1875 -0.46875 C 0.863281 -0.8125 0.703125 -1.273438 0.703125 -1.859375 L 0.703125 -4.859375 L 1.421875 -4.859375 L 1.421875 -2.0625 C 1.421875 -1.625 1.539062 -1.285156 1.78125 -1.046875 C 2.019531 -0.804688 2.351562 -0.6875 2.78125 -0.6875 C 3.269531 -0.695312 3.65625 -0.863281 3.9375 -1.1875 C 4.226562 -1.519531 4.375 -1.945312 4.375 -2.46875 L 4.375 -4.859375 Z M 5.09375 -4.859375 "/></g></g></g><g fill="#efffff" fill-opacity="1"><g transform="translate(172.58831, 206.78877)"><g><path d="M 1.640625 0 L 0.921875 0 L 0.921875 -6.84375 L 1.640625 -6.84375 Z M 1.640625 0 "/></g></g></g><g fill="#efffff" fill-opacity="1"><g transform="translate(176.997925, 206.78877)"><g/></g></g><g fill="#efffff" fill-opacity="1"><g transform="translate(181.370647, 206.78877)"><g><path d="M 7.5 0 L 6.828125 0 L 6.8125 -5.3125 L 4.46875 -0.6875 L 4.015625 -0.6875 L 1.671875 -5.3125 L 1.671875 0 L 0.984375 0 L 0.984375 -6.453125 L 1.890625 -6.453125 L 4.25 -1.8125 L 6.59375 -6.453125 L 7.5 -6.453125 Z M 7.5 0 "/></g></g></g><g fill="#efffff" fill-opacity="1"><g transform="translate(191.710443, 206.78877)"><g><path d="M 1.078125 -4.1875 C 1.535156 -4.644531 2.125 -4.875 2.84375 -4.875 C 3.5625 -4.875 4.148438 -4.644531 4.609375 -4.1875 C 5.078125 -3.738281 5.3125 -3.15625 5.3125 -2.4375 C 5.3125 -1.707031 5.078125 -1.113281 4.609375 -0.65625 C 4.148438 -0.195312 3.5625 0.03125 2.84375 0.03125 C 2.125 0.03125 1.535156 -0.195312 1.078125 -0.65625 C 0.617188 -1.113281 0.390625 -1.707031 0.390625 -2.4375 C 0.390625 -3.15625 0.617188 -3.738281 1.078125 -4.1875 Z M 4.09375 -3.71875 C 3.769531 -4.050781 3.351562 -4.21875 2.84375 -4.21875 C 2.332031 -4.21875 1.914062 -4.050781 1.59375 -3.71875 C 1.269531 -3.382812 1.109375 -2.953125 1.109375 -2.421875 C 1.109375 -1.890625 1.269531 -1.457031 1.59375 -1.125 C 1.914062 -0.789062 2.332031 -0.625 2.84375 -0.625 C 3.351562 -0.625 3.769531 -0.789062 4.09375 -1.125 C 4.425781 -1.457031 4.59375 -1.890625 4.59375 -2.421875 C 4.59375 -2.953125 4.425781 -3.382812 4.09375 -3.71875 Z M 4.09375 -3.71875 "/></g></g></g><g fill="#efffff" fill-opacity="1"><g transform="translate(199.255761, 206.78877)"><g><path d="M 1.59375 -4.859375 L 1.59375 -3.78125 C 1.925781 -4.507812 2.507812 -4.878906 3.34375 -4.890625 L 3.34375 -4.15625 C 2.832031 -4.164062 2.421875 -4.023438 2.109375 -3.734375 C 1.804688 -3.453125 1.632812 -3.066406 1.59375 -2.578125 L 1.59375 0 L 0.875 0 L 0.875 -4.859375 Z M 1.59375 -4.859375 "/></g></g></g><g fill="#efffff" fill-opacity="1"><g transform="translate(204.5323, 206.78877)"><g><path d="M 2.796875 -4.875 C 3.566406 -4.882812 4.144531 -4.640625 4.53125 -4.140625 C 4.914062 -3.648438 5.09375 -2.984375 5.0625 -2.140625 L 1.09375 -2.140625 C 1.15625 -1.671875 1.34375 -1.296875 1.65625 -1.015625 C 1.976562 -0.734375 2.378906 -0.59375 2.859375 -0.59375 C 3.472656 -0.59375 3.972656 -0.796875 4.359375 -1.203125 L 4.75 -0.78125 C 4.269531 -0.238281 3.617188 0.03125 2.796875 0.03125 C 2.085938 0.03125 1.507812 -0.195312 1.0625 -0.65625 C 0.613281 -1.113281 0.390625 -1.703125 0.390625 -2.421875 C 0.390625 -3.148438 0.613281 -3.738281 1.0625 -4.1875 C 1.507812 -4.644531 2.085938 -4.875 2.796875 -4.875 Z M 1.09375 -2.734375 L 4.421875 -2.734375 C 4.390625 -3.203125 4.226562 -3.570312 3.9375 -3.84375 C 3.644531 -4.125 3.265625 -4.265625 2.796875 -4.265625 C 2.335938 -4.265625 1.953125 -4.125 1.640625 -3.84375 C 1.335938 -3.5625 1.15625 -3.191406 1.09375 -2.734375 Z M 1.09375 -2.734375 "/></g></g></g><g fill="#efffff" fill-opacity="1"><g transform="translate(211.800945, 206.78877)"><g><path d="M 3.46875 -4.890625 C 4.050781 -4.890625 4.503906 -4.71875 4.828125 -4.375 C 5.148438 -4.039062 5.3125 -3.582031 5.3125 -3 L 5.3125 0 L 4.59375 0 L 4.59375 -2.796875 C 4.59375 -3.234375 4.472656 -3.570312 4.234375 -3.8125 C 3.992188 -4.050781 3.65625 -4.171875 3.21875 -4.171875 C 2.75 -4.160156 2.367188 -4.015625 2.078125 -3.734375 C 1.796875 -3.453125 1.632812 -3.078125 1.59375 -2.609375 L 1.59375 0 L 0.875 0 L 0.875 -4.859375 L 1.59375 -4.859375 L 1.59375 -3.78125 C 1.925781 -4.507812 2.550781 -4.878906 3.46875 -4.890625 Z M 3.46875 -4.890625 "/></g></g></g><g fill="#efffff" fill-opacity="1"><g transform="translate(219.696727, 206.78877)"><g><path d="M 1.078125 -4.1875 C 1.535156 -4.644531 2.125 -4.875 2.84375 -4.875 C 3.5625 -4.875 4.148438 -4.644531 4.609375 -4.1875 C 5.078125 -3.738281 5.3125 -3.15625 5.3125 -2.4375 C 5.3125 -1.707031 5.078125 -1.113281 4.609375 -0.65625 C 4.148438 -0.195312 3.5625 0.03125 2.84375 0.03125 C 2.125 0.03125 1.535156 -0.195312 1.078125 -0.65625 C 0.617188 -1.113281 0.390625 -1.707031 0.390625 -2.4375 C 0.390625 -3.15625 0.617188 -3.738281 1.078125 -4.1875 Z M 4.09375 -3.71875 C 3.769531 -4.050781 3.351562 -4.21875 2.84375 -4.21875 C 2.332031 -4.21875 1.914062 -4.050781 1.59375 -3.71875 C 1.269531 -3.382812 1.109375 -2.953125 1.109375 -2.421875 C 1.109375 -1.890625 1.269531 -1.457031 1.59375 -1.125 C 1.914062 -0.789062 2.332031 -0.625 2.84375 -0.625 C 3.351562 -0.625 3.769531 -0.789062 4.09375 -1.125 C 4.425781 -1.457031 4.59375 -1.890625 4.59375 -2.421875 C 4.59375 -2.953125 4.425781 -3.382812 4.09375 -3.71875 Z M 4.09375 -3.71875 "/></g></g></g></svg>